<svg width="1168" height="300" viewBox="0 0 1168 300" fill="none" xmlns="http://www.w3.org/2000/svg">
<path d="M464 219L426 87H462.6L485 191.2L508.6 87H539.8L564 191L586 87H621.4L583.2 219H545.8L530.2 155L524.2 122.8H523.8L518 155L502.6 219H464ZM673.867 221C657.201 221 644.001 216.467 634.267 207.4C624.667 198.333 619.867 185.533 619.867 169C619.867 158.067 622.067 148.733 626.467 141C631.001 133.133 637.134 127.2 644.867 123.2C652.734 119.067 661.867 117 672.267 117C682.801 117 691.734 119.067 699.067 123.2C706.534 127.2 712.201 132.8 716.067 140C719.934 147.067 721.867 155.2 721.867 164.4C721.867 166.933 721.734 169.4 721.467 171.8C721.334 174.067 721.201 176 721.067 177.6H652.867C653.801 184.533 656.067 189.533 659.667 192.6C663.267 195.533 668.001 197 673.867 197C678.934 197 682.934 196 685.867 194C688.934 192 691.201 189.2 692.667 185.6L719.867 194.6C718.001 200.333 714.734 205.2 710.067 209.2C705.534 213.067 700.067 216 693.667 218C687.401 220 680.801 221 673.867 221ZM672.267 140.8C661.467 140.8 655.067 147 653.067 159.4H689.667C688.201 147 682.401 140.8 672.267 140.8ZM777.688 221C765.288 221 755.288 216.467 747.688 207.4C740.221 198.333 736.488 185.667 736.488 169.4C736.488 158.2 738.221 148.733 741.688 141C745.288 133.133 750.221 127.2 756.488 123.2C762.888 119.067 770.221 117 778.488 117C785.554 117 791.554 118.733 796.488 122.2C801.554 125.667 805.354 130.267 807.888 136V76.6H841.888V219H811.488L810.288 199.4C807.488 206.067 803.221 211.333 797.488 215.2C791.888 219.067 785.288 221 777.688 221ZM789.488 196C795.088 196 799.554 193.667 802.888 189C806.221 184.333 807.888 177.467 807.888 168.4C807.888 160 806.288 153.533 803.088 149C799.888 144.333 795.421 142 789.688 142C783.821 142 779.154 144.2 775.688 148.6C772.354 152.867 770.688 159.667 770.688 169C770.688 178.333 772.354 185.2 775.688 189.6C779.021 193.867 783.621 196 789.488 196ZM928.678 196.8C940.278 196.8 949.145 199.267 955.278 204.2C961.545 209 964.678 215.933 964.678 225C964.678 237.533 959.678 246.8 949.678 252.8C939.811 258.933 926.478 262 909.678 262C891.545 262 878.478 259.733 870.478 255.2C862.478 250.667 858.478 244.533 858.478 236.8C858.478 232.267 859.945 228.4 862.878 225.2C865.945 222 870.811 219.8 877.478 218.6C867.745 215 862.878 208.267 862.878 198.4C862.878 193.733 864.278 189.667 867.078 186.2C869.878 182.6 873.745 180 878.678 178.4C868.011 172.533 862.678 163.4 862.678 151C862.678 140.2 866.878 131.867 875.278 126C883.811 120 895.745 117 911.078 117C918.811 117 925.811 117.8 932.078 119.4C932.611 114.6 933.945 110.133 936.078 106C938.345 101.867 941.411 98.5333 945.278 96C949.278 93.3333 954.145 92 959.878 92C960.278 92 960.745 92.0667 961.278 92.2C961.811 92.2 962.411 92.2 963.078 92.2L965.878 115C964.411 114.6 962.811 114.4 961.078 114.4C956.411 114.4 952.678 115.333 949.878 117.2C947.078 119.067 945.211 121.467 944.278 124.4C954.278 130.267 959.278 139.133 959.278 151C959.278 161.8 955.011 170.133 946.478 176C938.078 181.867 926.278 184.8 911.078 184.8C904.145 184.8 897.878 184.2 892.278 183C887.878 184.333 885.678 186.667 885.678 190C885.678 194.533 889.411 196.8 896.878 196.8H928.678ZM911.078 136.4C906.678 136.4 903.078 137.667 900.278 140.2C897.611 142.733 896.278 146.333 896.278 151C896.278 155.533 897.611 159.067 900.278 161.6C903.078 164.133 906.678 165.4 911.078 165.4C915.345 165.4 918.878 164.133 921.678 161.6C924.478 159.067 925.878 155.533 925.878 151C925.878 146.333 924.478 142.733 921.678 140.2C918.878 137.667 915.345 136.4 911.078 136.4ZM909.878 240C919.478 240 926.611 239 931.278 237C936.078 235.133 938.478 232.733 938.478 229.8C938.478 227.8 937.678 226.2 936.078 225C934.611 223.933 932.011 223.4 928.278 223.4H892.478C889.945 223.4 887.878 224.067 886.278 225.4C884.811 226.733 884.078 228.4 884.078 230.4C884.078 233.467 886.345 235.8 890.878 237.4C895.411 239.133 901.745 240 909.878 240ZM1026.99 221C1010.33 221 997.126 216.467 987.392 207.4C977.792 198.333 972.992 185.533 972.992 169C972.992 158.067 975.192 148.733 979.592 141C984.126 133.133 990.259 127.2 997.992 123.2C1005.86 119.067 1014.99 117 1025.39 117C1035.93 117 1044.86 119.067 1052.19 123.2C1059.66 127.2 1065.33 132.8 1069.19 140C1073.06 147.067 1074.99 155.2 1074.99 164.4C1074.99 166.933 1074.86 169.4 1074.59 171.8C1074.46 174.067 1074.33 176 1074.19 177.6H1005.99C1006.93 184.533 1009.19 189.533 1012.79 192.6C1016.39 195.533 1021.13 197 1026.99 197C1032.06 197 1036.06 196 1038.99 194C1042.06 192 1044.33 189.2 1045.79 185.6L1072.99 194.6C1071.13 200.333 1067.86 205.2 1063.19 209.2C1058.66 213.067 1053.19 216 1046.79 218C1040.53 220 1033.93 221 1026.99 221ZM1025.39 140.8C1014.59 140.8 1008.19 147 1006.19 159.4H1042.79C1041.33 147 1035.53 140.8 1025.39 140.8Z" fill="white"/>
<path d="M335.61 179.53C351.356 174.596 349.998 114.118 335.608 111.771C321.217 109.423 157.894 224.183 162.524 227.336C167.154 230.488 319.864 184.464 335.61 179.53Z" fill="white"/>
<path fill-rule="evenodd" clip-rule="evenodd" d="M147.038 224.369C167.765 204.204 312.568 101.16 329.998 100.782C322.184 89.8067 299.072 74.6008 288.612 73.0293C273.463 70.7532 103.26 202.006 108.101 205.196C108.369 205.372 108.813 205.919 109.467 206.721C113.205 211.313 123.773 224.295 147.038 224.369Z" fill="#54C1E7"/>
</svg>
