<svg width="1168" height="300" viewBox="0 0 1168 300" fill="none" xmlns="http://www.w3.org/2000/svg">
<path d="M444 219L406 87H442.6L465 191.2L488.6 87H519.8L544 191L566 87H601.4L563.2 219H525.8L510.2 155L504.2 122.8H503.8L498 155L482.6 219H444ZM653.867 221C637.201 221 624.001 216.467 614.267 207.4C604.667 198.333 599.867 185.533 599.867 169C599.867 158.067 602.067 148.733 606.467 141C611.001 133.133 617.134 127.2 624.867 123.2C632.734 119.067 641.867 117 652.267 117C662.801 117 671.734 119.067 679.067 123.2C686.534 127.2 692.201 132.8 696.067 140C699.934 147.067 701.867 155.2 701.867 164.4C701.867 166.933 701.734 169.4 701.467 171.8C701.334 174.067 701.201 176 701.067 177.6H632.867C633.801 184.533 636.067 189.533 639.667 192.6C643.267 195.533 648.001 197 653.867 197C658.934 197 662.934 196 665.867 194C668.934 192 671.201 189.2 672.667 185.6L699.867 194.6C698.001 200.333 694.734 205.2 690.067 209.2C685.534 213.067 680.067 216 673.667 218C667.401 220 660.801 221 653.867 221ZM652.267 140.8C641.467 140.8 635.067 147 633.067 159.4H669.667C668.201 147 662.401 140.8 652.267 140.8ZM757.688 221C745.288 221 735.288 216.467 727.688 207.4C720.221 198.333 716.488 185.667 716.488 169.4C716.488 158.2 718.221 148.733 721.688 141C725.288 133.133 730.221 127.2 736.488 123.2C742.888 119.067 750.221 117 758.488 117C765.554 117 771.554 118.733 776.488 122.2C781.554 125.667 785.354 130.267 787.888 136V76.6H821.888V219H791.488L790.288 199.4C787.488 206.067 783.221 211.333 777.488 215.2C771.888 219.067 765.288 221 757.688 221ZM769.488 196C775.088 196 779.554 193.667 782.888 189C786.221 184.333 787.888 177.467 787.888 168.4C787.888 160 786.288 153.533 783.088 149C779.888 144.333 775.421 142 769.688 142C763.821 142 759.154 144.2 755.688 148.6C752.354 152.867 750.688 159.667 750.688 169C750.688 178.333 752.354 185.2 755.688 189.6C759.021 193.867 763.621 196 769.488 196ZM908.678 196.8C920.278 196.8 929.145 199.267 935.278 204.2C941.545 209 944.678 215.933 944.678 225C944.678 237.533 939.678 246.8 929.678 252.8C919.811 258.933 906.478 262 889.678 262C871.545 262 858.478 259.733 850.478 255.2C842.478 250.667 838.478 244.533 838.478 236.8C838.478 232.267 839.945 228.4 842.878 225.2C845.945 222 850.811 219.8 857.478 218.6C847.745 215 842.878 208.267 842.878 198.4C842.878 193.733 844.278 189.667 847.078 186.2C849.878 182.6 853.745 180 858.678 178.4C848.011 172.533 842.678 163.4 842.678 151C842.678 140.2 846.878 131.867 855.278 126C863.811 120 875.745 117 891.078 117C898.811 117 905.811 117.8 912.078 119.4C912.611 114.6 913.945 110.133 916.078 106C918.345 101.867 921.411 98.5333 925.278 96C929.278 93.3333 934.145 92 939.878 92C940.278 92 940.745 92.0667 941.278 92.2C941.811 92.2 942.411 92.2 943.078 92.2L945.878 115C944.411 114.6 942.811 114.4 941.078 114.4C936.411 114.4 932.678 115.333 929.878 117.2C927.078 119.067 925.211 121.467 924.278 124.4C934.278 130.267 939.278 139.133 939.278 151C939.278 161.8 935.011 170.133 926.478 176C918.078 181.867 906.278 184.8 891.078 184.8C884.145 184.8 877.878 184.2 872.278 183C867.878 184.333 865.678 186.667 865.678 190C865.678 194.533 869.411 196.8 876.878 196.8H908.678ZM891.078 136.4C886.678 136.4 883.078 137.667 880.278 140.2C877.611 142.733 876.278 146.333 876.278 151C876.278 155.533 877.611 159.067 880.278 161.6C883.078 164.133 886.678 165.4 891.078 165.4C895.345 165.4 898.878 164.133 901.678 161.6C904.478 159.067 905.878 155.533 905.878 151C905.878 146.333 904.478 142.733 901.678 140.2C898.878 137.667 895.345 136.4 891.078 136.4ZM889.878 240C899.478 240 906.611 239 911.278 237C916.078 235.133 918.478 232.733 918.478 229.8C918.478 227.8 917.678 226.2 916.078 225C914.611 223.933 912.011 223.4 908.278 223.4H872.478C869.945 223.4 867.878 224.067 866.278 225.4C864.811 226.733 864.078 228.4 864.078 230.4C864.078 233.467 866.345 235.8 870.878 237.4C875.411 239.133 881.745 240 889.878 240ZM1006.99 221C990.326 221 977.126 216.467 967.392 207.4C957.792 198.333 952.992 185.533 952.992 169C952.992 158.067 955.192 148.733 959.592 141C964.126 133.133 970.259 127.2 977.992 123.2C985.859 119.067 994.992 117 1005.39 117C1015.93 117 1024.86 119.067 1032.19 123.2C1039.66 127.2 1045.33 132.8 1049.19 140C1053.06 147.067 1054.99 155.2 1054.99 164.4C1054.99 166.933 1054.86 169.4 1054.59 171.8C1054.46 174.067 1054.33 176 1054.19 177.6H985.992C986.926 184.533 989.192 189.533 992.792 192.6C996.392 195.533 1001.13 197 1006.99 197C1012.06 197 1016.06 196 1018.99 194C1022.06 192 1024.33 189.2 1025.79 185.6L1052.99 194.6C1051.13 200.333 1047.86 205.2 1043.19 209.2C1038.66 213.067 1033.19 216 1026.79 218C1020.53 220 1013.93 221 1006.99 221ZM1005.39 140.8C994.592 140.8 988.192 147 986.192 159.4H1022.79C1021.33 147 1015.53 140.8 1005.39 140.8Z" fill="#295579"/>
<path d="M332.61 190.53C348.356 185.596 346.998 125.118 332.608 122.771C318.217 120.423 154.894 235.184 159.524 238.336C164.154 241.488 316.864 195.464 332.61 190.53Z" fill="#295579"/>
<path fill-rule="evenodd" clip-rule="evenodd" d="M144.039 235.369C164.765 215.204 309.567 112.161 326.999 111.782C319.184 100.807 296.072 85.6008 285.612 84.0293C270.463 81.7532 100.26 213.006 105.101 216.196C105.369 216.372 105.813 216.919 106.467 217.721C110.205 222.313 120.773 235.295 144.039 235.369Z" fill="#54C1E7"/>
</svg>
