<svg width="1168" height="300" viewBox="0 0 1168 300" fill="none" xmlns="http://www.w3.org/2000/svg">
<path d="M523 200L485 68H521.6L544 172.2L567.6 68H598.8L623 172L645 68H680.4L642.2 200H604.8L589.2 136L583.2 103.8H582.8L577 136L561.6 200H523ZM732.867 202C716.201 202 703.001 197.467 693.267 188.4C683.667 179.333 678.867 166.533 678.867 150C678.867 139.067 681.067 129.733 685.467 122C690.001 114.133 696.134 108.2 703.867 104.2C711.734 100.067 720.867 98 731.267 98C741.801 98 750.734 100.067 758.067 104.2C765.534 108.2 771.201 113.8 775.067 121C778.934 128.067 780.867 136.2 780.867 145.4C780.867 147.933 780.734 150.4 780.467 152.8C780.334 155.067 780.201 157 780.067 158.6H711.867C712.801 165.533 715.067 170.533 718.667 173.6C722.267 176.533 727.001 178 732.867 178C737.934 178 741.934 177 744.867 175C747.934 173 750.201 170.2 751.667 166.6L778.867 175.6C777.001 181.333 773.734 186.2 769.067 190.2C764.534 194.067 759.067 197 752.667 199C746.401 201 739.801 202 732.867 202ZM731.267 121.8C720.467 121.8 714.067 128 712.067 140.4H748.667C747.201 128 741.401 121.8 731.267 121.8ZM836.688 202C824.288 202 814.288 197.467 806.688 188.4C799.221 179.333 795.488 166.667 795.488 150.4C795.488 139.2 797.221 129.733 800.688 122C804.288 114.133 809.221 108.2 815.488 104.2C821.888 100.067 829.221 98 837.488 98C844.554 98 850.554 99.7333 855.488 103.2C860.554 106.667 864.354 111.267 866.888 117V57.6H900.888V200H870.488L869.288 180.4C866.488 187.067 862.221 192.333 856.488 196.2C850.888 200.067 844.288 202 836.688 202ZM848.488 177C854.088 177 858.554 174.667 861.888 170C865.221 165.333 866.888 158.467 866.888 149.4C866.888 141 865.288 134.533 862.088 130C858.888 125.333 854.421 123 848.688 123C842.821 123 838.154 125.2 834.688 129.6C831.354 133.867 829.688 140.667 829.688 150C829.688 159.333 831.354 166.2 834.688 170.6C838.021 174.867 842.621 177 848.488 177ZM987.678 177.8C999.278 177.8 1008.14 180.267 1014.28 185.2C1020.54 190 1023.68 196.933 1023.68 206C1023.68 218.533 1018.68 227.8 1008.68 233.8C998.811 239.933 985.478 243 968.678 243C950.545 243 937.478 240.733 929.478 236.2C921.478 231.667 917.478 225.533 917.478 217.8C917.478 213.267 918.945 209.4 921.878 206.2C924.945 203 929.811 200.8 936.478 199.6C926.745 196 921.878 189.267 921.878 179.4C921.878 174.733 923.278 170.667 926.078 167.2C928.878 163.6 932.745 161 937.678 159.4C927.011 153.533 921.678 144.4 921.678 132C921.678 121.2 925.878 112.867 934.278 107C942.811 101 954.745 98 970.078 98C977.811 98 984.811 98.8 991.078 100.4C991.611 95.6 992.945 91.1333 995.078 87C997.345 82.8667 1000.41 79.5333 1004.28 77C1008.28 74.3333 1013.14 73 1018.88 73C1019.28 73 1019.74 73.0667 1020.28 73.2C1020.81 73.2 1021.41 73.2 1022.08 73.2L1024.88 96C1023.41 95.6 1021.81 95.4 1020.08 95.4C1015.41 95.4 1011.68 96.3333 1008.88 98.2C1006.08 100.067 1004.21 102.467 1003.28 105.4C1013.28 111.267 1018.28 120.133 1018.28 132C1018.28 142.8 1014.01 151.133 1005.48 157C997.078 162.867 985.278 165.8 970.078 165.8C963.145 165.8 956.878 165.2 951.278 164C946.878 165.333 944.678 167.667 944.678 171C944.678 175.533 948.411 177.8 955.878 177.8H987.678ZM970.078 117.4C965.678 117.4 962.078 118.667 959.278 121.2C956.611 123.733 955.278 127.333 955.278 132C955.278 136.533 956.611 140.067 959.278 142.6C962.078 145.133 965.678 146.4 970.078 146.4C974.345 146.4 977.878 145.133 980.678 142.6C983.478 140.067 984.878 136.533 984.878 132C984.878 127.333 983.478 123.733 980.678 121.2C977.878 118.667 974.345 117.4 970.078 117.4ZM968.878 221C978.478 221 985.611 220 990.278 218C995.078 216.133 997.478 213.733 997.478 210.8C997.478 208.8 996.678 207.2 995.078 206C993.611 204.933 991.011 204.4 987.278 204.4H951.478C948.945 204.4 946.878 205.067 945.278 206.4C943.811 207.733 943.078 209.4 943.078 211.4C943.078 214.467 945.345 216.8 949.878 218.4C954.411 220.133 960.745 221 968.878 221ZM1085.99 202C1069.33 202 1056.13 197.467 1046.39 188.4C1036.79 179.333 1031.99 166.533 1031.99 150C1031.99 139.067 1034.19 129.733 1038.59 122C1043.13 114.133 1049.26 108.2 1056.99 104.2C1064.86 100.067 1073.99 98 1084.39 98C1094.93 98 1103.86 100.067 1111.19 104.2C1118.66 108.2 1124.33 113.8 1128.19 121C1132.06 128.067 1133.99 136.2 1133.99 145.4C1133.99 147.933 1133.86 150.4 1133.59 152.8C1133.46 155.067 1133.33 157 1133.19 158.6H1064.99C1065.93 165.533 1068.19 170.533 1071.79 173.6C1075.39 176.533 1080.13 178 1085.99 178C1091.06 178 1095.06 177 1097.99 175C1101.06 173 1103.33 170.2 1104.79 166.6L1131.99 175.6C1130.13 181.333 1126.86 186.2 1122.19 190.2C1117.66 194.067 1112.19 197 1105.79 199C1099.53 201 1092.93 202 1085.99 202ZM1084.39 121.8C1073.59 121.8 1067.19 128 1065.19 140.4H1101.79C1100.33 128 1094.53 121.8 1084.39 121.8Z" fill="#374151"/>
<path d="M421.043 200.298C448.579 191.67 446.205 85.9076 421.039 81.8018C395.874 77.696 110.254 278.388 118.352 283.901C126.45 289.413 393.506 208.926 421.043 200.298Z" fill="#374151"/>
<path fill-rule="evenodd" clip-rule="evenodd" d="M91.2693 278.712C127.516 243.448 380.749 63.2431 411.229 62.5855C397.563 43.3915 357.145 16.7995 338.853 14.0512C312.36 10.0709 14.7114 239.605 23.1772 245.184C23.6446 245.492 24.4222 246.447 25.5647 247.85C32.1016 255.88 50.5841 278.583 91.2693 278.712Z" fill="#A5B4FC"/>
</svg>
