<svg width="1959" height="300" viewBox="0 0 1959 300" fill="none" xmlns="http://www.w3.org/2000/svg">
<path d="M614.6 162.2C610.733 176.067 603.6 186.2 593.2 192.6C582.933 198.867 570.8 202 556.8 202C543.333 202 531.733 199.333 522 194C512.4 188.533 505 180.733 499.8 170.6C494.6 160.467 492 148.267 492 134C492 119.733 494.6 107.533 499.8 97.4C505 87.2667 512.4 79.5333 522 74.2C531.733 68.7333 543.267 66 556.6 66C570.333 66 582.333 68.9333 592.6 74.8C602.867 80.6667 609.667 89.8667 613 102.4L582.8 114.6C580.933 106.467 577.867 100.867 573.6 97.8C569.467 94.6 564.2 93 557.8 93C548.2 93 540.667 96.4667 535.2 103.4C529.867 110.333 527.2 120.533 527.2 134C527.2 147.467 529.733 157.667 534.8 164.6C540 171.533 547.733 175 558 175C564.4 175 569.8 173.267 574.2 169.8C578.733 166.2 581.8 160.733 583.4 153.4L614.6 162.2ZM664.933 57.6V166C664.933 170.4 665.666 173.533 667.133 175.4C668.599 177.267 671.066 178.2 674.533 178.2C676.533 178.2 678.199 178.067 679.533 177.8C680.866 177.533 682.466 177.133 684.333 176.6L682.133 197C679.733 198.467 676.599 199.667 672.733 200.6C668.866 201.533 665.066 202 661.333 202C650.666 202 642.933 199.533 638.133 194.6C633.333 189.667 630.933 181.6 630.933 170.4V57.6H664.933ZM744.363 98C754.896 98 764.096 100.067 771.963 104.2C779.963 108.333 786.163 114.267 790.563 122C795.096 129.733 797.363 139.067 797.363 150C797.363 160.933 795.096 170.267 790.563 178C786.163 185.733 779.963 191.667 771.963 195.8C764.096 199.933 754.896 202 744.363 202C733.963 202 724.763 199.933 716.763 195.8C708.896 191.667 702.696 185.733 698.163 178C693.763 170.267 691.563 160.933 691.563 150C691.563 139.067 693.763 129.733 698.163 122C702.696 114.267 708.896 108.333 716.763 104.2C724.763 100.067 733.963 98 744.363 98ZM744.363 122.2C738.496 122.2 733.896 124.4 730.563 128.8C727.363 133.067 725.763 140.133 725.763 150C725.763 159.733 727.363 166.8 730.563 171.2C733.896 175.6 738.496 177.8 744.363 177.8C750.363 177.8 754.963 175.6 758.163 171.2C761.496 166.8 763.163 159.733 763.163 150C763.163 140.133 761.496 133.067 758.163 128.8C754.963 124.4 750.363 122.2 744.363 122.2ZM850.289 202C840.156 202 831.889 199.267 825.489 193.8C819.089 188.333 815.889 179.333 815.889 166.8V100H849.889V158.8C849.889 165.2 851.156 169.667 853.689 172.2C856.222 174.733 859.822 176 864.489 176C869.289 176 873.356 174.267 876.689 170.8C880.156 167.2 881.889 161.467 881.889 153.6V100H915.889V200H885.489L884.489 181.2C881.289 188.267 876.822 193.533 871.089 197C865.356 200.333 858.422 202 850.289 202ZM977.117 202C964.717 202 954.717 197.467 947.117 188.4C939.651 179.333 935.917 166.667 935.917 150.4C935.917 139.2 937.651 129.733 941.117 122C944.717 114.133 949.651 108.2 955.917 104.2C962.317 100.067 969.651 98 977.917 98C984.984 98 990.984 99.7333 995.917 103.2C1000.98 106.667 1004.78 111.267 1007.32 117V57.6H1041.32V200H1010.92L1009.72 180.4C1006.92 187.067 1002.65 192.333 996.917 196.2C991.317 200.067 984.717 202 977.117 202ZM988.917 177C994.517 177 998.984 174.667 1002.32 170C1005.65 165.333 1007.32 158.467 1007.32 149.4C1007.32 141 1005.72 134.533 1002.52 130C999.317 125.333 994.851 123 989.117 123C983.251 123 978.584 125.2 975.117 129.6C971.784 133.867 970.117 140.667 970.117 150C970.117 159.333 971.784 166.2 975.117 170.6C978.451 174.867 983.051 177 988.917 177ZM1093.51 200L1055.51 68H1092.11L1114.51 172.2L1138.11 68H1169.31L1193.51 172L1215.51 68H1250.91L1212.71 200H1175.31L1159.71 136L1153.71 103.8H1153.31L1147.51 136L1132.11 200H1093.51ZM1303.38 202C1286.71 202 1273.51 197.467 1263.78 188.4C1254.18 179.333 1249.38 166.533 1249.38 150C1249.38 139.067 1251.58 129.733 1255.98 122C1260.51 114.133 1266.64 108.2 1274.38 104.2C1282.24 100.067 1291.38 98 1301.78 98C1312.31 98 1321.24 100.067 1328.58 104.2C1336.04 108.2 1341.71 113.8 1345.58 121C1349.44 128.067 1351.38 136.2 1351.38 145.4C1351.38 147.933 1351.24 150.4 1350.98 152.8C1350.84 155.067 1350.71 157 1350.58 158.6H1282.38C1283.31 165.533 1285.58 170.533 1289.18 173.6C1292.78 176.533 1297.51 178 1303.38 178C1308.44 178 1312.44 177 1315.38 175C1318.44 173 1320.71 170.2 1322.18 166.6L1349.38 175.6C1347.51 181.333 1344.24 186.2 1339.58 190.2C1335.04 194.067 1329.58 197 1323.18 199C1316.91 201 1310.31 202 1303.38 202ZM1301.78 121.8C1290.98 121.8 1284.58 128 1282.58 140.4H1319.18C1317.71 128 1311.91 121.8 1301.78 121.8ZM1407.2 202C1394.8 202 1384.8 197.467 1377.2 188.4C1369.73 179.333 1366 166.667 1366 150.4C1366 139.2 1367.73 129.733 1371.2 122C1374.8 114.133 1379.73 108.2 1386 104.2C1392.4 100.067 1399.73 98 1408 98C1415.06 98 1421.06 99.7333 1426 103.2C1431.06 106.667 1434.86 111.267 1437.4 117V57.6H1471.4V200H1441L1439.8 180.4C1437 187.067 1432.73 192.333 1427 196.2C1421.4 200.067 1414.8 202 1407.2 202ZM1419 177C1424.6 177 1429.06 174.667 1432.4 170C1435.73 165.333 1437.4 158.467 1437.4 149.4C1437.4 141 1435.8 134.533 1432.6 130C1429.4 125.333 1424.93 123 1419.2 123C1413.33 123 1408.66 125.2 1405.2 129.6C1401.86 133.867 1400.2 140.667 1400.2 150C1400.2 159.333 1401.86 166.2 1405.2 170.6C1408.53 174.867 1413.13 177 1419 177ZM1558.19 177.8C1569.79 177.8 1578.65 180.267 1584.79 185.2C1591.05 190 1594.19 196.933 1594.19 206C1594.19 218.533 1589.19 227.8 1579.19 233.8C1569.32 239.933 1555.99 243 1539.19 243C1521.05 243 1507.99 240.733 1499.99 236.2C1491.99 231.667 1487.99 225.533 1487.99 217.8C1487.99 213.267 1489.45 209.4 1492.39 206.2C1495.45 203 1500.32 200.8 1506.99 199.6C1497.25 196 1492.39 189.267 1492.39 179.4C1492.39 174.733 1493.79 170.667 1496.59 167.2C1499.39 163.6 1503.25 161 1508.19 159.4C1497.52 153.533 1492.19 144.4 1492.19 132C1492.19 121.2 1496.39 112.867 1504.79 107C1513.32 101 1525.25 98 1540.59 98C1548.32 98 1555.32 98.8 1561.59 100.4C1562.12 95.6 1563.45 91.1333 1565.59 87C1567.85 82.8667 1570.92 79.5333 1574.79 77C1578.79 74.3333 1583.65 73 1589.39 73C1589.79 73 1590.25 73.0667 1590.79 73.2C1591.32 73.2 1591.92 73.2 1592.59 73.2L1595.39 96C1593.92 95.6 1592.32 95.4 1590.59 95.4C1585.92 95.4 1582.19 96.3333 1579.39 98.2C1576.59 100.067 1574.72 102.467 1573.79 105.4C1583.79 111.267 1588.79 120.133 1588.79 132C1588.79 142.8 1584.52 151.133 1575.99 157C1567.59 162.867 1555.79 165.8 1540.59 165.8C1533.65 165.8 1527.39 165.2 1521.79 164C1517.39 165.333 1515.19 167.667 1515.19 171C1515.19 175.533 1518.92 177.8 1526.39 177.8H1558.19ZM1540.59 117.4C1536.19 117.4 1532.59 118.667 1529.79 121.2C1527.12 123.733 1525.79 127.333 1525.79 132C1525.79 136.533 1527.12 140.067 1529.79 142.6C1532.59 145.133 1536.19 146.4 1540.59 146.4C1544.85 146.4 1548.39 145.133 1551.19 142.6C1553.99 140.067 1555.39 136.533 1555.39 132C1555.39 127.333 1553.99 123.733 1551.19 121.2C1548.39 118.667 1544.85 117.4 1540.59 117.4ZM1539.39 221C1548.99 221 1556.12 220 1560.79 218C1565.59 216.133 1567.99 213.733 1567.99 210.8C1567.99 208.8 1567.19 207.2 1565.59 206C1564.12 204.933 1561.52 204.4 1557.79 204.4H1521.99C1519.45 204.4 1517.39 205.067 1515.79 206.4C1514.32 207.733 1513.59 209.4 1513.59 211.4C1513.59 214.467 1515.85 216.8 1520.39 218.4C1524.92 220.133 1531.25 221 1539.39 221ZM1656.5 202C1639.83 202 1626.63 197.467 1616.9 188.4C1607.3 179.333 1602.5 166.533 1602.5 150C1602.5 139.067 1604.7 129.733 1609.1 122C1613.63 114.133 1619.77 108.2 1627.5 104.2C1635.37 100.067 1644.5 98 1654.9 98C1665.43 98 1674.37 100.067 1681.7 104.2C1689.17 108.2 1694.83 113.8 1698.7 121C1702.57 128.067 1704.5 136.2 1704.5 145.4C1704.5 147.933 1704.37 150.4 1704.1 152.8C1703.97 155.067 1703.83 157 1703.7 158.6H1635.5C1636.43 165.533 1638.7 170.533 1642.3 173.6C1645.9 176.533 1650.63 178 1656.5 178C1661.57 178 1665.57 177 1668.5 175C1671.57 173 1673.83 170.2 1675.3 166.6L1702.5 175.6C1700.63 181.333 1697.37 186.2 1692.7 190.2C1688.17 194.067 1682.7 197 1676.3 199C1670.03 201 1663.43 202 1656.5 202ZM1654.9 121.8C1644.1 121.8 1637.7 128 1635.7 140.4H1672.3C1670.83 128 1665.03 121.8 1654.9 121.8ZM1737.92 176C1741.79 176 1744.92 177.2 1747.32 179.6C1749.72 182 1750.92 185.133 1750.92 189C1750.92 192.867 1749.72 196 1747.32 198.4C1744.92 200.8 1741.79 202 1737.92 202C1734.05 202 1730.92 200.8 1728.52 198.4C1726.12 196 1724.92 192.867 1724.92 189C1724.92 185.133 1726.12 182 1728.52 179.6C1730.92 177.2 1734.05 176 1737.92 176ZM1791.05 80.8C1787.45 80.8 1784.51 79.7333 1782.25 77.6C1780.11 75.3333 1779.05 72.4 1779.05 68.8C1779.05 65.2 1780.11 62.3333 1782.25 60.2C1784.51 57.9333 1787.45 56.8 1791.05 56.8C1794.65 56.8 1797.51 57.9333 1799.65 60.2C1801.91 62.3333 1803.05 65.2 1803.05 68.8C1803.05 72.4 1801.91 75.3333 1799.65 77.6C1797.51 79.7333 1794.65 80.8 1791.05 80.8ZM1799.05 100V200H1783.05V100H1799.05ZM1877.57 98C1887.04 98 1895.37 100.067 1902.57 104.2C1909.9 108.333 1915.64 114.333 1919.77 122.2C1923.9 129.933 1925.97 139.2 1925.97 150C1925.97 160.8 1923.9 170.133 1919.77 178C1915.64 185.733 1909.9 191.667 1902.57 195.8C1895.37 199.933 1887.04 202 1877.57 202C1868.24 202 1859.9 199.933 1852.57 195.8C1845.24 191.667 1839.5 185.733 1835.37 178C1831.24 170.133 1829.17 160.8 1829.17 150C1829.17 139.2 1831.24 129.933 1835.37 122.2C1839.5 114.333 1845.24 108.333 1852.57 104.2C1859.9 100.067 1868.24 98 1877.57 98ZM1877.57 111.8C1867.44 111.8 1859.5 115.2 1853.77 122C1848.04 128.8 1845.17 138.133 1845.17 150C1845.17 161.867 1848.04 171.2 1853.77 178C1859.5 184.8 1867.44 188.2 1877.57 188.2C1887.7 188.2 1895.64 184.8 1901.37 178C1907.1 171.2 1909.97 161.867 1909.97 150C1909.97 138.133 1907.1 128.8 1901.37 122C1895.64 115.2 1887.7 111.8 1877.57 111.8Z" fill="white"/>
<path d="M421.043 200.298C448.579 191.67 446.205 85.9076 421.039 81.8018C395.874 77.696 110.254 278.388 118.352 283.901C126.45 289.413 393.506 208.926 421.043 200.298Z" fill="white"/>
<path fill-rule="evenodd" clip-rule="evenodd" d="M91.2693 278.712C127.516 243.448 380.749 63.2431 411.229 62.5855C397.563 43.3915 357.145 16.7995 338.853 14.0512C312.36 10.0709 14.7114 239.605 23.1772 245.184C23.6446 245.492 24.4222 246.447 25.5647 247.85C32.1016 255.88 50.5841 278.583 91.2693 278.712Z" fill="#A5B4FC"/>
</svg>
