<svg width="1959" height="300" viewBox="0 0 1959 300" fill="none" xmlns="http://www.w3.org/2000/svg">
<path d="M539.6 181.2C535.733 195.067 528.6 205.2 518.2 211.6C507.933 217.867 495.8 221 481.8 221C468.333 221 456.733 218.333 447 213C437.4 207.533 430 199.733 424.8 189.6C419.6 179.467 417 167.267 417 153C417 138.733 419.6 126.533 424.8 116.4C430 106.267 437.4 98.5333 447 93.2C456.733 87.7333 468.267 85 481.6 85C495.333 85 507.333 87.9333 517.6 93.8C527.867 99.6667 534.667 108.867 538 121.4L507.8 133.6C505.933 125.467 502.867 119.867 498.6 116.8C494.467 113.6 489.2 112 482.8 112C473.2 112 465.667 115.467 460.2 122.4C454.867 129.333 452.2 139.533 452.2 153C452.2 166.467 454.733 176.667 459.8 183.6C465 190.533 472.733 194 483 194C489.4 194 494.8 192.267 499.2 188.8C503.733 185.2 506.8 179.733 508.4 172.4L539.6 181.2ZM589.933 76.6V185C589.933 189.4 590.666 192.533 592.133 194.4C593.599 196.267 596.066 197.2 599.533 197.2C601.533 197.2 603.199 197.067 604.533 196.8C605.866 196.533 607.466 196.133 609.333 195.6L607.133 216C604.733 217.467 601.599 218.667 597.733 219.6C593.866 220.533 590.066 221 586.333 221C575.666 221 567.933 218.533 563.133 213.6C558.333 208.667 555.933 200.6 555.933 189.4V76.6H589.933ZM669.363 117C679.896 117 689.096 119.067 696.963 123.2C704.963 127.333 711.163 133.267 715.563 141C720.096 148.733 722.363 158.067 722.363 169C722.363 179.933 720.096 189.267 715.563 197C711.163 204.733 704.963 210.667 696.963 214.8C689.096 218.933 679.896 221 669.363 221C658.963 221 649.763 218.933 641.763 214.8C633.896 210.667 627.696 204.733 623.163 197C618.763 189.267 616.563 179.933 616.563 169C616.563 158.067 618.763 148.733 623.163 141C627.696 133.267 633.896 127.333 641.763 123.2C649.763 119.067 658.963 117 669.363 117ZM669.363 141.2C663.496 141.2 658.896 143.4 655.563 147.8C652.363 152.067 650.763 159.133 650.763 169C650.763 178.733 652.363 185.8 655.563 190.2C658.896 194.6 663.496 196.8 669.363 196.8C675.363 196.8 679.963 194.6 683.163 190.2C686.496 185.8 688.163 178.733 688.163 169C688.163 159.133 686.496 152.067 683.163 147.8C679.963 143.4 675.363 141.2 669.363 141.2ZM775.289 221C765.156 221 756.889 218.267 750.489 212.8C744.089 207.333 740.889 198.333 740.889 185.8V119H774.889V177.8C774.889 184.2 776.156 188.667 778.689 191.2C781.222 193.733 784.822 195 789.489 195C794.289 195 798.356 193.267 801.689 189.8C805.156 186.2 806.889 180.467 806.889 172.6V119H840.889V219H810.489L809.489 200.2C806.289 207.267 801.822 212.533 796.089 216C790.356 219.333 783.422 221 775.289 221ZM902.117 221C889.717 221 879.717 216.467 872.117 207.4C864.651 198.333 860.917 185.667 860.917 169.4C860.917 158.2 862.651 148.733 866.117 141C869.717 133.133 874.651 127.2 880.917 123.2C887.317 119.067 894.651 117 902.917 117C909.984 117 915.984 118.733 920.917 122.2C925.984 125.667 929.784 130.267 932.317 136V76.6H966.317V219H935.917L934.717 199.4C931.917 206.067 927.651 211.333 921.917 215.2C916.317 219.067 909.717 221 902.117 221ZM913.917 196C919.517 196 923.984 193.667 927.317 189C930.651 184.333 932.317 177.467 932.317 168.4C932.317 160 930.717 153.533 927.517 149C924.317 144.333 919.851 142 914.117 142C908.251 142 903.584 144.2 900.117 148.6C896.784 152.867 895.117 159.667 895.117 169C895.117 178.333 896.784 185.2 900.117 189.6C903.451 193.867 908.051 196 913.917 196ZM1018.51 219L980.508 87H1017.11L1039.51 191.2L1063.11 87H1094.31L1118.51 191L1140.51 87H1175.91L1137.71 219H1100.31L1084.71 155L1078.71 122.8H1078.31L1072.51 155L1057.11 219H1018.51ZM1228.38 221C1211.71 221 1198.51 216.467 1188.78 207.4C1179.18 198.333 1174.38 185.533 1174.38 169C1174.38 158.067 1176.58 148.733 1180.98 141C1185.51 133.133 1191.64 127.2 1199.38 123.2C1207.24 119.067 1216.38 117 1226.78 117C1237.31 117 1246.24 119.067 1253.58 123.2C1261.04 127.2 1266.71 132.8 1270.58 140C1274.44 147.067 1276.38 155.2 1276.38 164.4C1276.38 166.933 1276.24 169.4 1275.98 171.8C1275.84 174.067 1275.71 176 1275.58 177.6H1207.38C1208.31 184.533 1210.58 189.533 1214.18 192.6C1217.78 195.533 1222.51 197 1228.38 197C1233.44 197 1237.44 196 1240.38 194C1243.44 192 1245.71 189.2 1247.18 185.6L1274.38 194.6C1272.51 200.333 1269.24 205.2 1264.58 209.2C1260.04 213.067 1254.58 216 1248.18 218C1241.91 220 1235.31 221 1228.38 221ZM1226.78 140.8C1215.98 140.8 1209.58 147 1207.58 159.4H1244.18C1242.71 147 1236.91 140.8 1226.78 140.8ZM1332.2 221C1319.8 221 1309.8 216.467 1302.2 207.4C1294.73 198.333 1291 185.667 1291 169.4C1291 158.2 1292.73 148.733 1296.2 141C1299.8 133.133 1304.73 127.2 1311 123.2C1317.4 119.067 1324.73 117 1333 117C1340.06 117 1346.06 118.733 1351 122.2C1356.06 125.667 1359.86 130.267 1362.4 136V76.6H1396.4V219H1366L1364.8 199.4C1362 206.067 1357.73 211.333 1352 215.2C1346.4 219.067 1339.8 221 1332.2 221ZM1344 196C1349.6 196 1354.06 193.667 1357.4 189C1360.73 184.333 1362.4 177.467 1362.4 168.4C1362.4 160 1360.8 153.533 1357.6 149C1354.4 144.333 1349.93 142 1344.2 142C1338.33 142 1333.66 144.2 1330.2 148.6C1326.86 152.867 1325.2 159.667 1325.2 169C1325.2 178.333 1326.86 185.2 1330.2 189.6C1333.53 193.867 1338.13 196 1344 196ZM1483.19 196.8C1494.79 196.8 1503.65 199.267 1509.79 204.2C1516.05 209 1519.19 215.933 1519.19 225C1519.19 237.533 1514.19 246.8 1504.19 252.8C1494.32 258.933 1480.99 262 1464.19 262C1446.05 262 1432.99 259.733 1424.99 255.2C1416.99 250.667 1412.99 244.533 1412.99 236.8C1412.99 232.267 1414.45 228.4 1417.39 225.2C1420.45 222 1425.32 219.8 1431.99 218.6C1422.25 215 1417.39 208.267 1417.39 198.4C1417.39 193.733 1418.79 189.667 1421.59 186.2C1424.39 182.6 1428.25 180 1433.19 178.4C1422.52 172.533 1417.19 163.4 1417.19 151C1417.19 140.2 1421.39 131.867 1429.79 126C1438.32 120 1450.25 117 1465.59 117C1473.32 117 1480.32 117.8 1486.59 119.4C1487.12 114.6 1488.45 110.133 1490.59 106C1492.85 101.867 1495.92 98.5333 1499.79 96C1503.79 93.3333 1508.65 92 1514.39 92C1514.79 92 1515.25 92.0667 1515.79 92.2C1516.32 92.2 1516.92 92.2 1517.59 92.2L1520.39 115C1518.92 114.6 1517.32 114.4 1515.59 114.4C1510.92 114.4 1507.19 115.333 1504.39 117.2C1501.59 119.067 1499.72 121.467 1498.79 124.4C1508.79 130.267 1513.79 139.133 1513.79 151C1513.79 161.8 1509.52 170.133 1500.99 176C1492.59 181.867 1480.79 184.8 1465.59 184.8C1458.65 184.8 1452.39 184.2 1446.79 183C1442.39 184.333 1440.19 186.667 1440.19 190C1440.19 194.533 1443.92 196.8 1451.39 196.8H1483.19ZM1465.59 136.4C1461.19 136.4 1457.59 137.667 1454.79 140.2C1452.12 142.733 1450.79 146.333 1450.79 151C1450.79 155.533 1452.12 159.067 1454.79 161.6C1457.59 164.133 1461.19 165.4 1465.59 165.4C1469.85 165.4 1473.39 164.133 1476.19 161.6C1478.99 159.067 1480.39 155.533 1480.39 151C1480.39 146.333 1478.99 142.733 1476.19 140.2C1473.39 137.667 1469.85 136.4 1465.59 136.4ZM1464.39 240C1473.99 240 1481.12 239 1485.79 237C1490.59 235.133 1492.99 232.733 1492.99 229.8C1492.99 227.8 1492.19 226.2 1490.59 225C1489.12 223.933 1486.52 223.4 1482.79 223.4H1446.99C1444.45 223.4 1442.39 224.067 1440.79 225.4C1439.32 226.733 1438.59 228.4 1438.59 230.4C1438.59 233.467 1440.85 235.8 1445.39 237.4C1449.92 239.133 1456.25 240 1464.39 240ZM1581.5 221C1564.83 221 1551.63 216.467 1541.9 207.4C1532.3 198.333 1527.5 185.533 1527.5 169C1527.5 158.067 1529.7 148.733 1534.1 141C1538.63 133.133 1544.77 127.2 1552.5 123.2C1560.37 119.067 1569.5 117 1579.9 117C1590.43 117 1599.37 119.067 1606.7 123.2C1614.17 127.2 1619.83 132.8 1623.7 140C1627.57 147.067 1629.5 155.2 1629.5 164.4C1629.5 166.933 1629.37 169.4 1629.1 171.8C1628.97 174.067 1628.83 176 1628.7 177.6H1560.5C1561.43 184.533 1563.7 189.533 1567.3 192.6C1570.9 195.533 1575.63 197 1581.5 197C1586.57 197 1590.57 196 1593.5 194C1596.57 192 1598.83 189.2 1600.3 185.6L1627.5 194.6C1625.63 200.333 1622.37 205.2 1617.7 209.2C1613.17 213.067 1607.7 216 1601.3 218C1595.03 220 1588.43 221 1581.5 221ZM1579.9 140.8C1569.1 140.8 1562.7 147 1560.7 159.4H1597.3C1595.83 147 1590.03 140.8 1579.9 140.8ZM1662.92 195C1666.79 195 1669.92 196.2 1672.32 198.6C1674.72 201 1675.92 204.133 1675.92 208C1675.92 211.867 1674.72 215 1672.32 217.4C1669.92 219.8 1666.79 221 1662.92 221C1659.05 221 1655.92 219.8 1653.52 217.4C1651.12 215 1649.92 211.867 1649.92 208C1649.92 204.133 1651.12 201 1653.52 198.6C1655.92 196.2 1659.05 195 1662.92 195ZM1716.05 99.8C1712.45 99.8 1709.51 98.7333 1707.25 96.6C1705.11 94.3333 1704.05 91.4 1704.05 87.8C1704.05 84.2 1705.11 81.3333 1707.25 79.2C1709.51 76.9333 1712.45 75.8 1716.05 75.8C1719.65 75.8 1722.51 76.9333 1724.65 79.2C1726.91 81.3333 1728.05 84.2 1728.05 87.8C1728.05 91.4 1726.91 94.3333 1724.65 96.6C1722.51 98.7333 1719.65 99.8 1716.05 99.8ZM1724.05 119V219H1708.05V119H1724.05ZM1802.57 117C1812.04 117 1820.37 119.067 1827.57 123.2C1834.9 127.333 1840.64 133.333 1844.77 141.2C1848.9 148.933 1850.97 158.2 1850.97 169C1850.97 179.8 1848.9 189.133 1844.77 197C1840.64 204.733 1834.9 210.667 1827.57 214.8C1820.37 218.933 1812.04 221 1802.57 221C1793.24 221 1784.9 218.933 1777.57 214.8C1770.24 210.667 1764.5 204.733 1760.37 197C1756.24 189.133 1754.17 179.8 1754.17 169C1754.17 158.2 1756.24 148.933 1760.37 141.2C1764.5 133.333 1770.24 127.333 1777.57 123.2C1784.9 119.067 1793.24 117 1802.57 117ZM1802.57 130.8C1792.44 130.8 1784.5 134.2 1778.77 141C1773.04 147.8 1770.17 157.133 1770.17 169C1770.17 180.867 1773.04 190.2 1778.77 197C1784.5 203.8 1792.44 207.2 1802.57 207.2C1812.7 207.2 1820.64 203.8 1826.37 197C1832.1 190.2 1834.97 180.867 1834.97 169C1834.97 157.133 1832.1 147.8 1826.37 141C1820.64 134.2 1812.7 130.8 1802.57 130.8Z" fill="#295579"/>
<path d="M332.61 190.53C348.356 185.596 346.998 125.118 332.608 122.771C318.217 120.423 154.894 235.184 159.524 238.336C164.154 241.488 316.864 195.464 332.61 190.53Z" fill="#295579"/>
<path fill-rule="evenodd" clip-rule="evenodd" d="M144.039 235.369C164.765 215.204 309.567 112.161 326.999 111.782C319.184 100.807 296.072 85.6008 285.612 84.0293C270.463 81.7532 100.26 213.006 105.101 216.196C105.369 216.372 105.813 216.919 106.467 217.721C110.205 222.313 120.773 235.295 144.039 235.369Z" fill="#54C1E7"/>
</svg>
